<?xml version="1.0" standalone="no"?>
<!DOCTYPE svg PUBLIC "-//W3C//DTD SVG 20010904//EN"
 "http://www.w3.org/TR/2001/REC-SVG-20010904/DTD/svg10.dtd">
<svg version="1.0" xmlns="http://www.w3.org/2000/svg"
 width="1367.000000pt" height="633.000000pt" viewBox="0 0 1367.000000 633.000000"
 preserveAspectRatio="xMidYMid meet">

<g transform="translate(0.000000,633.000000) scale(0.100000,-0.100000)"
fill="#000000" stroke="none">
<path d="M7486 5851 c14 -24 16 -33 6 -43 -9 -9 -8 -16 6 -31 17 -19 15 -19
-48 -13 -36 3 -75 5 -86 6 -12 0 -27 7 -34 15 -7 8 -28 15 -48 15 -34 0 -35 0
-17 -20 10 -11 28 -20 40 -20 29 0 40 -26 17 -39 -16 -9 -15 -11 3 -25 32 -23
5 -39 -72 -41 -37 -2 -72 -3 -77 -4 -5 0 0 -11 11 -23 18 -20 19 -25 7 -36 -8
-7 -22 -11 -32 -8 -24 8 -46 -9 -39 -28 9 -22 45 -20 89 4 24 13 39 16 44 9 4
-7 12 -6 22 3 10 8 44 22 77 32 33 10 72 24 86 32 25 13 27 12 22 -7 -3 -12
-11 -18 -19 -15 -15 6 -15 5 -19 -31 -2 -19 2 -17 30 13 18 19 37 34 43 34 15
0 4 -30 -21 -57 -24 -27 -16 -29 20 -5 15 9 24 11 19 4 -4 -6 -21 -19 -38 -28
-19 -10 -27 -11 -23 -4 5 8 3 11 -5 8 -7 -2 -14 -12 -16 -22 -2 -15 3 -17 35
-11 28 5 41 2 51 -10 12 -15 12 -18 -3 -26 -35 -20 -3 -65 38 -55 28 7 30 15
15 66 -8 27 -7 37 3 45 8 6 12 15 10 21 -6 19 33 168 41 155 5 -7 5 -15 2 -18
-8 -9 24 -43 40 -43 7 0 14 -5 16 -11 2 -6 12 -7 26 -2 22 8 21 10 -20 50 -24
22 -56 47 -73 54 -19 9 -32 24 -35 41 -5 25 -44 62 -94 90 -18 10 -18 9 0 -21z
m64 -81 c0 -5 -7 -10 -15 -10 -8 0 -15 5 -15 10 0 6 7 10 15 10 8 0 15 -4 15
-10z m-165 -50 c-3 -5 -12 -10 -18 -10 -7 0 -6 4 3 10 19 12 23 12 15 0z m166
-30 c-24 -22 -51 -40 -59 -40 -19 0 -13 7 43 49 58 43 68 37 16 -9z m-287 -61
c5 -5 -5 -4 -24 1 -18 5 -35 12 -39 16 -9 9 53 -7 63 -17z"/>
<path d="M5080 4979 c0 -5 5 -7 10 -4 6 3 10 8 10 11 0 2 -4 4 -10 4 -5 0 -10
-5 -10 -11z"/>
<path d="M6460 4966 c0 -9 5 -16 10 -16 6 0 10 4 10 9 0 6 -4 13 -10 16 -5 3
-10 -1 -10 -9z"/>
<path d="M6885 4471 c-15 -17 -37 -31 -48 -33 -23 -3 -34 -32 -36 -90 -1 -43
-6 -45 -35 -20 -19 17 -19 17 -3 -8 22 -32 21 -40 -5 -40 -52 -1 -114 -41
-195 -127 -61 -65 -78 -89 -65 -91 9 -2 30 -8 45 -14 25 -10 31 -8 61 21 35
34 49 39 40 16 -5 -11 -2 -13 10 -9 9 3 16 10 16 14 0 11 48 60 60 60 5 0 10
6 10 14 0 9 -7 12 -20 9 -17 -4 -19 -2 -13 13 7 20 32 43 47 44 5 0 6 -14 2
-31 -3 -18 -1 -49 5 -70 9 -30 9 -42 -1 -54 -10 -12 -10 -15 4 -15 8 0 18 -10
20 -22 3 -13 11 -50 19 -83 14 -56 13 -61 -4 -81 -26 -27 -24 -36 6 -28 20 5
27 1 37 -21 10 -23 10 -28 -5 -36 -10 -6 -17 -22 -17 -42 0 -18 -4 -47 -9 -65
-13 -43 -6 -58 30 -71 25 -8 33 -6 58 15 l29 24 1 233 1 233 -50 38 c-52 40
-97 93 -86 103 3 3 29 -12 58 -34 82 -62 78 -63 78 21 l0 75 -30 -4 c-24 -3
-30 0 -30 15 0 18 21 26 53 21 4 0 7 33 7 74 0 41 -4 75 -8 75 -5 0 -21 -13
-37 -29z m-33 -793 c-9 -9 -12 -7 -12 12 0 19 3 21 12 12 9 -9 9 -15 0 -24z"/>
<path d="M7344 4377 c-12 -6 -33 -20 -47 -30 -28 -20 -52 -14 -43 10 4 8 -7 3
-25 -11 -17 -14 -37 -26 -45 -26 -11 0 -14 -22 -14 -110 0 -60 2 -110 4 -110
2 0 22 25 45 55 34 45 38 55 23 55 -10 0 -27 7 -38 15 -18 14 -18 14 4 15 13
0 33 -5 45 -11 18 -10 23 -8 36 12 9 12 36 45 61 72 61 67 66 77 38 77 -13 0
-33 -6 -44 -13z"/>
<path d="M7118 4312 c-16 -3 -18 -18 -18 -148 0 -96 3 -143 10 -139 6 4 7 11
4 17 -4 7 -2 8 5 4 18 -12 22 13 19 145 -3 112 -5 124 -20 121z"/>
<path d="M7448 4103 c7 -3 16 -2 19 1 4 3 -2 6 -13 5 -11 0 -14 -3 -6 -6z"/>
<path d="M7595 4103 c-11 -2 -30 -6 -42 -9 -13 -2 -23 -9 -23 -15 0 -15 72 -4
109 16 l26 14 -25 -1 c-14 0 -34 -2 -45 -5z"/>
<path d="M7232 4054 c-31 -37 -35 -77 -5 -53 30 25 56 70 46 80 -7 7 -21 -2
-41 -27z"/>
<path d="M7467 4083 c-3 -3 -3 -11 0 -18 5 -14 33 -9 33 5 0 10 -26 20 -33 13z"/>
<path d="M7665 4083 c-34 -8 -115 -34 -115 -38 0 -12 83 -175 93 -183 18 -14
57 -21 57 -11 0 5 11 9 25 9 28 0 75 20 75 32 0 4 -7 8 -15 8 -8 0 -15 6 -15
14 0 22 -54 39 -99 31 -31 -5 -41 -3 -41 7 0 7 -10 19 -21 26 -21 14 -21 14 7
44 16 16 45 38 64 48 33 18 28 23 -15 13z"/>
<path d="M7501 4031 c-11 -7 -7 -21 19 -70 31 -57 70 -97 70 -72 0 9 -70 151
-74 151 0 0 -7 -4 -15 -9z"/>
<path d="M7282 4018 c-17 -17 -15 -23 13 -36 28 -13 30 -8 12 26 -10 17 -15
20 -25 10z"/>
<path d="M7140 3935 c0 -8 4 -15 10 -15 5 0 7 7 4 15 -4 8 -8 15 -10 15 -2 0
-4 -7 -4 -15z"/>
<path d="M7120 3913 c0 -4 5 -15 10 -23 8 -13 10 -13 10 2 0 9 -4 20 -10 23
-5 3 -10 3 -10 -2z"/>
<path d="M7100 3845 c0 -8 7 -15 16 -15 14 0 14 3 4 15 -7 8 -14 15 -16 15 -2
0 -4 -7 -4 -15z"/>
<path d="M7100 3800 c0 -6 7 -10 15 -10 8 0 15 2 15 4 0 2 -7 6 -15 10 -8 3
-15 1 -15 -4z"/>
<path d="M2730 1124 c0 -15 10 -27 31 -38 42 -21 50 -13 31 28 -19 41 -62 49
-62 10z"/>
<path d="M9248 1125 c-9 -19 -9 -28 0 -37 7 -7 9 -28 5 -56 -5 -35 -3 -46 10
-54 19 -10 23 -63 7 -73 -8 -5 -8 -11 0 -20 6 -7 14 -32 18 -56 l7 -42 25 24
c14 13 21 21 16 17 -23 -18 -27 -6 -8 25 11 17 36 59 56 91 36 60 51 103 18
55 -39 -58 -95 -118 -104 -113 -5 4 9 26 33 50 45 46 46 56 4 28 -25 -16 -25
-16 -25 20 0 20 -4 36 -10 36 -5 0 -10 11 -10 24 0 14 5 28 10 31 16 10 11 39
-10 58 -26 22 -28 22 -42 -8z"/>
<path d="M3254 1106 c-5 -19 -2 -37 10 -56 9 -16 13 -35 10 -44 -3 -9 0 -24 7
-33 12 -15 12 -16 -4 -10 -11 4 -16 3 -12 -3 3 -6 14 -10 23 -10 29 0 28 95
-2 145 l-24 40 -8 -29z"/>
<path d="M5332 1094 c-12 -8 -22 -22 -22 -31 0 -8 -12 -29 -26 -46 -16 -19
-24 -38 -20 -51 5 -21 -23 -66 -42 -66 -5 0 -10 -10 -10 -22 0 -13 -16 -57
-36 -99 -48 -101 -73 -210 -81 -356 -4 -68 -11 -123 -16 -123 -8 0 -29 63 -29
90 0 8 -11 33 -25 55 -13 22 -25 51 -26 65 -1 14 -5 3 -8 -25 l-7 -50 -7 50
c-18 117 -22 124 -25 45 -3 -91 -9 -113 -23 -87 -6 9 -7 22 -4 27 3 6 -1 10
-9 10 -9 0 -16 5 -16 11 0 5 -4 7 -10 4 -15 -9 -12 11 11 104 24 94 20 119 -7
39 -9 -29 -23 -66 -29 -82 -12 -29 -13 -29 -24 -8 -10 18 -7 28 12 59 38 62
40 70 7 31 -35 -42 -55 -49 -45 -18 5 16 2 20 -14 20 -25 0 -45 34 -38 65 7
39 -5 48 -49 36 -21 -6 -43 -10 -48 -10 -5 0 -12 -5 -17 -13 -9 -14 23 -37 52
-38 9 0 24 -18 34 -40 13 -29 23 -39 38 -37 15 1 24 -6 31 -25 5 -15 34 -53
63 -85 29 -31 53 -60 53 -64 0 -5 29 -36 65 -71 36 -34 65 -65 65 -69 0 -4
-13 -12 -30 -19 -16 -7 -30 -19 -30 -26 0 -12 6 -12 38 1 20 9 41 20 46 26 16
15 26 11 36 -14 l9 -22 0 23 c1 13 5 20 11 17 6 -3 10 1 10 9 0 20 17 42 108
134 39 42 72 78 72 82 0 4 -8 14 -17 21 -14 12 -16 12 -8 0 5 -9 4 -12 -2 -8
-6 4 -13 21 -17 39 l-7 33 -14 -25 c-8 -14 -14 -32 -15 -41 0 -20 -39 -70 -40
-51 0 7 -5 10 -11 6 -7 -4 -9 0 -6 12 3 11 8 29 12 41 4 14 1 22 -8 25 -10 2
0 18 30 48 39 39 44 42 38 20 -5 -21 -4 -22 5 -7 6 9 8 22 5 27 -3 6 -1 10 6
10 7 0 9 3 6 6 -4 4 -13 1 -22 -6 -9 -7 -18 -11 -21 -8 -8 8 16 61 38 86 20
21 14 31 -8 15 -6 -5 21 23 59 61 39 38 64 65 56 61 -8 -5 -34 -22 -58 -37
-43 -27 -101 -38 -101 -19 0 5 48 32 106 61 58 28 104 54 101 56 -3 3 -15 0
-27 -6 -19 -10 -157 -60 -166 -60 -2 0 -1 6 2 14 3 8 24 17 47 20 57 9 83 26
40 26 -35 0 -44 14 -17 24 11 4 14 13 11 28 -7 24 17 58 38 58 17 0 26 27 19
56 -7 28 -12 29 -42 8z m-98 -650 c4 -9 2 -13 -5 -8 -6 4 -15 0 -20 -7 -7 -11
-9 -11 -9 3 0 9 6 19 13 21 6 3 13 6 13 6 1 1 5 -6 8 -15z"/>
<path d="M2981 1073 c-2 -28 24 -103 36 -103 8 0 7 12 -6 43 -10 23 -21 49
-24 57 -3 9 -6 10 -6 3z"/>
<path d="M9399 905 c-14 -29 -21 -51 -16 -48 11 7 50 93 45 99 -2 2 -15 -21
-29 -51z"/>
<path d="M9518 953 c7 -3 16 -2 19 1 4 3 -2 6 -13 5 -11 0 -14 -3 -6 -6z"/>
<path d="M10367 942 c-11 -12 -13 -22 -6 -35 16 -27 25 -20 25 18 0 19 -1 35
-1 35 -1 0 -9 -8 -18 -18z"/>
<path d="M3065 920 c7 -23 6 -24 -7 -6 -14 18 -16 17 -36 -16 -12 -20 -22 -39
-22 -42 0 -13 83 -86 112 -99 15 -6 28 -15 28 -19 0 -5 5 -8 10 -8 6 0 1 18
-10 40 -11 21 -20 55 -20 75 0 19 -5 35 -10 35 -6 0 -20 15 -31 33 -17 27 -20
28 -14 7z"/>
<path d="M4002 912 c2 -16 12 -31 24 -36 11 -5 30 -26 42 -48 14 -23 30 -38
42 -38 22 0 51 -36 43 -56 -3 -8 1 -14 11 -14 25 0 148 -122 133 -132 -7 -5
-2 -8 15 -8 14 0 28 -3 30 -7 4 -10 107 -73 175 -107 57 -29 90 -34 58 -10
-11 8 -20 18 -20 22 -1 4 -5 25 -10 47 -4 22 -8 43 -7 46 0 3 -15 21 -33 39
-46 44 -45 61 0 21 46 -40 54 -39 23 1 -24 32 -79 75 -64 51 9 -16 -8 -17 -35
-3 -15 8 -19 7 -19 -5 0 -8 -4 -15 -10 -15 -21 0 -48 39 -65 94 -13 40 -22 55
-32 52 -8 -3 -21 7 -33 26 l-18 31 5 -42 c4 -32 2 -41 -10 -41 -11 0 -16 17
-22 66 -4 36 -8 64 -10 62 -2 -2 -5 -31 -6 -65 -1 -34 -6 -68 -11 -75 -6 -8
-8 2 -6 30 4 43 -6 57 -15 22 -6 -23 -27 -27 -27 -6 0 12 -22 28 -43 30 -13 2
-27 29 -27 53 0 26 -12 35 -52 39 -27 3 -29 1 -26 -24z"/>
<path d="M8050 915 c0 -17 8 -29 23 -36 13 -6 32 -26 42 -45 10 -19 29 -37 42
-40 27 -7 46 -36 37 -57 -4 -10 5 -18 28 -26 37 -13 141 -108 132 -122 -3 -5
4 -9 14 -9 11 0 25 -7 32 -15 27 -32 102 -65 155 -67 61 -3 88 14 112 70 11
27 11 37 -2 68 -8 20 -15 47 -15 61 0 13 -7 34 -15 47 -13 19 -13 28 -4 50 10
22 9 33 -11 72 -30 57 -36 61 -44 23 -4 -20 0 -39 10 -54 9 -14 13 -32 10 -41
-4 -9 -1 -23 5 -30 9 -10 8 -15 -2 -18 -45 -14 -67 -14 -87 0 -12 8 -22 11
-22 6 0 -9 42 -40 113 -81 20 -13 37 -24 37 -26 0 -11 -80 10 -105 28 -22 15
-26 16 -16 4 16 -20 12 -21 -23 -7 -25 9 -46 -3 -26 -15 5 -3 10 -11 10 -17 0
-20 -33 17 -51 57 -10 22 -19 36 -19 30 0 -5 -7 -2 -14 8 -8 10 -20 16 -27 15
-7 -2 -22 19 -34 50 -26 62 -38 78 -25 31 6 -19 10 -47 10 -64 0 -57 -28 -5
-41 75 -6 41 -13 79 -16 83 -3 5 -13 -9 -23 -31 -15 -34 -23 -40 -55 -44 -39
-4 -55 10 -55 51 0 24 -13 33 -51 37 -25 3 -29 0 -29 -21z m574 -206 c19 -17
0 -16 -39 2 l-40 19 35 -6 c19 -3 39 -10 44 -15z m-49 -100 c22 -23 31 -37 20
-31 -26 13 -82 72 -69 72 6 0 28 -19 49 -41z"/>
<path d="M4526 889 c-4 -19 0 -38 9 -53 9 -13 13 -31 9 -40 -3 -9 -1 -23 6
-31 10 -12 9 -16 -4 -21 -9 -3 -23 -4 -31 0 -8 3 -15 1 -15 -4 0 -5 16 -12 35
-16 32 -6 53 -20 43 -29 -2 -2 -33 10 -70 28 -36 18 -64 27 -62 22 6 -16 97
-73 128 -81 24 -6 26 -4 26 25 0 18 -7 42 -16 56 -12 19 -13 28 -4 45 13 24 1
66 -31 107 l-17 23 -6 -31z"/>
<path d="M10284 878 c-16 -12 -32 -24 -36 -27 -4 -3 11 -7 33 -8 37 -2 39 -1
39 27 0 17 -2 30 -4 30 -2 0 -16 -10 -32 -22z"/>
<path d="M1690 829 c0 -37 49 -65 77 -43 12 9 13 13 5 14 -7 0 -10 5 -7 11 10
16 -23 47 -50 47 -21 0 -25 -5 -25 -29z"/>
<path d="M4020 850 c0 -5 5 -10 11 -10 5 0 7 5 4 10 -3 6 -8 10 -11 10 -2 0
-4 -4 -4 -10z"/>
<path d="M9665 840 c-10 -11 -19 -31 -20 -44 0 -14 -8 -33 -18 -44 -9 -10 -17
-24 -17 -30 0 -17 -25 -15 -40 3 -7 9 -15 13 -18 10 -3 -3 7 -19 23 -35 16
-16 25 -33 21 -37 -9 -10 -42 31 -63 77 -9 19 -18 30 -20 23 -2 -6 10 -44 27
-83 17 -40 29 -74 26 -77 -3 -3 -16 1 -30 10 -16 11 -27 32 -34 64 l-10 48 1
-60 c2 -50 -1 -62 -17 -70 -10 -5 -31 -31 -45 -57 l-26 -48 23 -40 23 -40 -25
0 c-13 0 -27 8 -31 18 -6 16 -7 16 -17 -2 -9 -16 -7 -23 12 -38 24 -19 47 -19
42 1 -4 18 19 12 39 -11 24 -27 24 -41 0 -33 -13 4 -26 -4 -44 -29 -14 -18
-23 -37 -19 -41 4 -5 2 -5 -4 -2 -5 3 -32 -12 -60 -33 -69 -55 -114 -75 -138
-60 -16 10 -18 10 -12 -7 5 -11 -6 -5 -28 16 l-35 34 1 -29 c0 -16 -12 -54
-28 -84 -18 -33 -28 -66 -26 -82 3 -29 17 -37 24 -16 4 10 11 10 34 0 l29 -12
-33 30 c-19 18 -31 34 -28 38 4 3 24 -12 46 -33 48 -47 51 -36 9 28 -36 54
-35 72 1 54 14 -7 32 -31 43 -57 10 -25 16 -34 13 -20 -16 85 -18 100 -13 100
3 0 16 -27 28 -60 21 -58 39 -70 39 -27 1 18 5 15 21 -15 17 -34 24 -38 57
-38 l37 1 -35 30 c-39 34 -23 29 27 -8 l33 -24 -7 33 c-3 18 -17 51 -31 73
-23 37 -24 40 -7 50 10 5 40 25 67 43 49 33 50 33 71 15 22 -18 22 -18 5 3
-20 23 -23 40 -9 48 5 3 23 -17 41 -44 18 -28 34 -50 36 -50 2 0 -10 30 -27
66 -16 37 -27 69 -25 72 3 2 11 -7 17 -22 7 -15 15 -22 19 -16 3 6 22 -1 45
-17 l40 -26 -42 44 -42 44 37 2 c55 3 79 -5 85 -26 6 -26 43 -17 75 17 34 35
18 78 -40 106 -28 14 -33 14 -79 -9 -73 -38 -78 -36 -73 37 5 87 4 87 21 145
7 28 20 56 27 63 8 6 12 19 9 30 -3 13 5 29 25 47 22 20 33 42 40 81 10 56 5
63 -23 32z m50 -484 c-11 -8 -23 -12 -28 -9 -13 8 3 23 26 23 20 0 20 0 2 -14z
m-260 -56 c-3 -5 -10 -10 -16 -10 -5 0 -9 5 -9 10 0 6 7 10 16 10 8 0 12 -4 9
-10z m-214 -177 c13 -16 12 -17 -3 -4 -10 7 -18 15 -18 17 0 8 8 3 21 -13z"/>
<path d="M9395 812 c3 -23 1 -31 -7 -26 -8 5 -9 2 -3 -12 5 -10 9 -46 9 -79
l1 -60 34 -3 c45 -5 50 5 36 58 l-12 45 -13 -30 c-11 -28 -13 -28 -20 -10 -5
11 -9 38 -10 60 -1 22 -6 51 -11 65 -8 22 -8 21 -4 -8z"/>
<path d="M10190 778 c-11 -24 -20 -49 -20 -55 0 -16 -5 -16 -33 -1 -20 10 -21
10 -9 -5 12 -14 9 -17 -25 -22 -72 -12 -83 -15 -83 -28 0 -7 -13 -26 -30 -42
-16 -16 -30 -34 -30 -39 0 -7 3 -7 8 1 4 6 21 14 37 18 29 6 29 6 11 -9 -34
-28 -8 -17 50 20 73 47 86 41 84 -38 -3 -104 0 -138 8 -138 5 0 7 15 5 33 l-4
32 25 -30 c29 -33 33 -47 14 -44 -44 5 -78 -43 -78 -111 0 -12 -9 -29 -19 -38
-19 -16 -26 -54 -22 -112 l1 -25 20 25 c11 14 20 39 20 57 0 20 7 36 17 42 14
8 15 12 4 25 -11 13 -11 17 4 22 12 5 13 9 4 14 -7 5 -9 16 -5 25 6 16 9 16
32 -6 14 -13 31 -33 36 -44 11 -19 10 -19 -9 -3 -33 30 -39 20 -8 -12 26 -27
55 -40 55 -23 0 13 -74 133 -83 133 -4 0 -6 4 -2 9 3 6 15 8 27 6 24 -5 21 -2
42 -40 l17 -30 -4 38 c-1 20 -2 37 0 37 9 0 33 -63 33 -86 l0 -28 28 27 c16
15 31 24 35 20 4 -3 7 -29 8 -57 0 -39 3 -46 9 -31 7 14 9 -3 7 -53 -2 -74 6
-95 16 -43 6 30 59 89 65 72 2 -5 -13 -48 -32 -95 -41 -98 -45 -115 -15 -68
25 38 36 40 49 10 7 -20 9 -18 9 16 1 35 0 37 -16 25 -17 -13 -17 -13 0 13 9
15 17 34 17 43 0 31 17 14 27 -27 l11 -43 1 36 c0 19 -3 39 -7 45 -16 17 -54
145 -48 160 3 8 1 14 -3 14 -5 0 -18 14 -29 31 -19 31 -19 31 0 71 23 47 17
64 -7 19 -8 -17 -19 -31 -23 -31 -4 0 -22 22 -39 48 -18 26 -63 81 -99 122
-38 42 -62 76 -55 78 7 2 39 -16 71 -42 33 -25 72 -48 87 -52 15 -3 39 -13 52
-21 22 -14 24 -14 17 3 -7 17 -6 17 13 0 11 -10 18 -23 17 -29 -2 -7 -1 -9 1
-4 9 14 24 6 70 -35 46 -42 43 -34 -19 44 -22 28 -26 39 -19 64 l8 29 38 -60
c79 -126 95 -150 95 -144 0 4 -20 50 -45 103 -35 75 -41 97 -29 94 10 -2 23
-23 32 -53 l16 -50 5 32 c5 25 9 30 20 24 8 -6 21 -5 30 1 21 13 71 -6 71 -27
0 -26 44 -17 72 15 43 50 15 102 -45 82 l-32 -10 35 -1 34 -1 -23 -16 c-21
-15 -25 -15 -57 2 -29 16 -37 17 -55 6 -17 -11 -27 -11 -50 -2 -16 7 -29 16
-29 20 0 4 -10 5 -22 3 -13 -2 -54 3 -93 12 -38 9 -79 18 -90 19 -11 1 -50 6
-86 10 l-66 8 5 44 c2 24 2 44 -2 44 -4 0 -16 -19 -26 -42z m-108 -138 c-23
-16 -44 -30 -48 -30 -12 0 10 23 40 41 48 30 54 22 8 -11z m174 -118 c1 -16 5
-39 9 -51 4 -15 1 -23 -10 -27 -21 -8 -32 3 -40 41 -5 23 -4 26 4 15 8 -11 9
-2 5 35 -6 48 -6 49 12 33 10 -10 19 -31 20 -46z"/>
<path d="M11455 799 c-4 -6 -5 -12 -2 -15 2 -3 7 2 10 11 7 17 1 20 -8 4z"/>
<path d="M1945 756 c3 -15 9 -41 12 -57 3 -16 12 -29 19 -29 10 0 9 9 -5 43
-30 71 -31 73 -26 43z"/>
<path d="M11437 763 c-4 -3 -7 -11 -7 -17 0 -6 5 -5 12 2 6 6 9 14 7 17 -3 3
-9 2 -12 -2z"/>
<path d="M3151 674 c0 -11 3 -14 6 -6 3 7 2 16 -1 19 -3 4 -6 -2 -5 -13z"/>
<path d="M4640 678 c0 -9 7 -19 16 -22 25 -10 27 -1 4 19 -17 15 -20 16 -20 3z"/>
<path d="M5340 645 c-24 -64 -23 -73 7 -79 51 -10 136 8 163 35 54 55 56 60
19 52 -19 -3 -42 -17 -52 -30 -10 -13 -29 -23 -43 -23 -13 0 -24 -4 -24 -10 0
-20 -29 -10 -36 13 -8 21 -8 21 -16 -8 -5 -22 -6 -17 -4 23 3 58 0 64 -14 27z"/>
<path d="M1986 612 c-31 -50 -31 -50 -3 -82 22 -25 119 -92 124 -86 2 2 -5 24
-16 49 -11 26 -16 49 -11 52 4 3 6 14 3 25 -3 11 -9 17 -14 14 -5 -3 -9 -2 -9
3 0 4 -11 21 -24 37 l-23 30 -27 -42z m38 12 c3 -8 2 -12 -4 -9 -6 3 -10 10
-10 16 0 14 7 11 14 -7z"/>
<path d="M2971 622 l-31 -27 31 -38 c22 -27 26 -37 15 -37 -10 0 -16 -9 -16
-25 0 -22 -4 -25 -34 -25 -42 0 -68 9 -60 21 8 14 -12 11 -24 -3 -14 -18 -10
-57 8 -68 21 -14 30 -12 30 5 0 10 10 15 30 15 17 0 30 -4 30 -10 0 -18 26
-10 48 15 27 31 60 32 72 3 l9 -23 7 22 c5 19 34 33 79 39 6 0 23 4 39 9 29 8
28 9 -38 42 -55 28 -67 38 -63 54 3 12 0 19 -9 19 -8 0 -32 9 -53 20 l-39 19
-31 -27z m93 -29 c19 -10 25 -18 18 -25 -10 -10 -52 9 -52 24 0 5 -6 8 -14 8
-8 0 -18 5 -22 11 -8 13 25 4 70 -18z"/>
<path d="M5286 616 c-9 -14 -12 -27 -8 -30 5 -3 13 8 19 25 14 35 10 37 -11 5z"/>
<path d="M7536 599 c-3 -18 -1 -38 5 -45 6 -7 12 -33 14 -58 2 -43 1 -46 -22
-46 -13 0 -21 -4 -18 -10 3 -5 16 -10 28 -10 26 0 54 -16 45 -25 -4 -4 -33 6
-65 21 -32 15 -62 30 -68 33 -31 14 26 -34 76 -65 64 -38 73 -54 34 -54 -15 0
-43 16 -67 38 -47 41 -47 40 42 -70 32 -39 29 -38 -37 20 -39 34 -73 62 -77
62 -3 0 -1 -12 4 -26 11 -27 3 -26 -33 4 -16 15 -21 13 -52 -19 -19 -19 -31
-39 -27 -44 4 -6 36 -29 72 -52 85 -54 152 -65 194 -32 44 34 57 74 40 122 -8
22 -14 48 -14 59 0 10 -7 30 -16 43 -13 21 -14 30 -5 53 12 28 1 62 -34 115
-11 16 -13 14 -19 -14z"/>
<path d="M4570 586 c0 -2 7 -7 16 -10 8 -3 12 -2 9 4 -6 10 -25 14 -25 6z"/>
<path d="M4620 570 c-13 -8 -12 -10 3 -10 12 0 16 -5 11 -12 -6 -10 -4 -10 7
0 17 16 0 35 -21 22z"/>
<path d="M2700 545 c0 -7 44 -46 65 -57 12 -6 6 4 -14 26 -31 32 -51 45 -51
31z"/>
<path d="M4250 510 c0 -5 -11 -12 -25 -16 -14 -3 -25 -10 -25 -15 0 -5 -7 -6
-15 -3 -11 5 -13 2 -9 -10 8 -20 -4 -21 -27 0 -15 14 -18 13 -27 -15 -6 -17
-15 -31 -19 -31 -5 0 -9 -8 -9 -17 0 -10 -3 -30 -7 -45 -5 -21 -4 -28 6 -28
24 0 50 39 51 75 1 19 4 35 7 35 9 0 99 -101 99 -111 0 -5 -4 -9 -10 -9 -22 0
-8 -30 20 -45 37 -19 87 -19 175 1 39 9 79 17 90 19 11 1 27 5 35 8 113 39
140 51 133 58 -5 5 -35 11 -68 14 -33 4 -67 9 -75 12 -27 9 -122 10 -108 2 9
-6 7 -9 -9 -9 -21 0 -164 52 -193 70 -22 14 -2 29 42 32 35 3 44 15 23 30 -15
11 -55 10 -55 -2z m118 -142 l23 -12 -22 -8 c-15 -6 -27 -4 -39 7 -9 8 -20 15
-23 15 -8 0 -117 71 -117 76 0 3 134 -56 178 -78z"/>
<path d="M8342 499 c2 -17 11 -25 27 -27 24 -4 24 -3 9 19 -21 33 -40 37 -36
8z"/>
<path d="M8415 510 c11 -5 27 -9 35 -9 13 -1 13 0 0 9 -8 5 -24 9 -35 9 l-20
0 20 -9z"/>
<path d="M3700 501 c0 -15 42 -83 47 -77 7 6 -30 85 -39 86 -5 0 -8 -4 -8 -9z"/>
<path d="M7289 478 c-1 -7 0 -19 1 -27 1 -8 -4 -18 -12 -22 -24 -15 14 -41 55
-37 35 3 35 3 21 28 l-15 25 6 -25 c6 -24 5 -23 -14 5 -12 17 -21 35 -21 42 0
17 -20 27 -21 11z"/>
<path d="M9620 439 c-10 -18 -9 -20 12 -17 12 2 24 11 26 21 5 24 -25 22 -38
-4z"/>
<path d="M3326 443 c-12 -12 -6 -22 9 -17 20 8 19 -5 -4 -40 -11 -17 -17 -34
-14 -39 6 -10 -15 -27 -36 -27 -8 0 -11 6 -7 16 5 14 4 15 -8 5 -11 -10 -12
-17 -4 -29 23 -37 280 -184 295 -169 3 4 -6 12 -21 18 -33 16 -33 21 6 39 42
20 75 64 61 82 -6 7 -18 34 -28 61 -12 32 -23 47 -36 47 -23 0 -33 -16 -14
-24 8 -3 15 -10 15 -16 0 -15 -43 -12 -66 5 -38 29 -35 14 8 -37 l43 -53 -52
45 c-29 25 -53 48 -53 52 0 4 -16 4 -36 1 l-36 -6 16 31 c15 29 15 31 -8 45
-13 9 -26 13 -30 10z"/>
<path d="M3643 429 c-61 -30 -64 -53 -10 -76 33 -15 35 -8 5 19 -19 16 -20 19
-5 14 10 -3 24 -6 31 -6 6 0 16 -15 21 -32 8 -26 17 -34 40 -38 21 -4 32 -13
39 -32 5 -15 36 -55 68 -89 32 -34 58 -68 58 -76 0 -7 3 -13 8 -13 4 0 30 -22
57 -50 60 -59 80 -64 70 -18 -10 44 -10 45 -86 126 -50 54 -69 68 -77 60 -9
-9 -12 -6 -12 14 0 33 -9 58 -21 58 -5 0 -9 -12 -9 -27 -1 -27 -1 -27 -15 -9
-13 17 -13 22 1 37 18 20 10 43 -12 35 -8 -3 -14 1 -14 9 0 8 -9 15 -20 15
-22 0 -43 32 -38 58 3 21 -9 42 -25 42 -7 0 -31 -9 -54 -21z"/>
<path d="M3859 371 c-16 -49 -20 -74 -13 -81 8 -8 16 13 28 66 9 42 15 79 12
81 -2 3 -15 -27 -27 -66z"/>
<path d="M8416 415 c17 -13 16 -14 -16 -5 -47 13 -48 13 -52 -12 -2 -14 -10
-22 -18 -20 -8 1 0 -12 18 -29 23 -20 39 -28 50 -24 53 22 56 19 28 -18 -21
-28 -36 -37 -60 -38 l-31 -2 28 -4 c29 -5 31 -10 12 -56 -13 -30 23 -8 37 23
12 29 33 40 76 40 29 0 28 11 -3 40 -13 12 -22 27 -19 31 7 11 -44 89 -58 89
-7 0 -3 -7 8 -15z m-26 -35 c13 -8 13 -10 -2 -10 -9 0 -20 5 -23 10 -8 13 5
13 25 0z"/>
<path d="M2835 411 c-6 -11 20 -33 28 -24 4 3 7 10 7 14 0 11 -29 19 -35 10z"/>
<path d="M8256 404 c-5 -12 -2 -15 10 -10 9 4 24 1 33 -6 10 -8 9 -5 -3 10
-23 26 -32 28 -40 6z"/>
<path d="M2915 400 c-3 -5 -2 -10 4 -10 5 0 13 5 16 10 3 6 2 10 -4 10 -5 0
-13 -4 -16 -10z"/>
<path d="M3907 328 c-4 -37 -10 -73 -12 -81 -3 -7 21 -43 52 -82 42 -50 59
-64 61 -52 2 10 -5 30 -15 45 -10 15 -23 41 -30 57 -9 23 -12 26 -13 10 -1
-19 -2 -18 -10 3 -5 12 -15 22 -21 22 -8 0 -8 4 -2 13 5 6 7 39 4 72 l-6 60
-8 -67z"/>
<path d="M2878 373 c7 -3 16 -2 19 1 4 3 -2 6 -13 5 -11 0 -14 -3 -6 -6z"/>
<path d="M3827 363 c-4 -3 -7 -13 -7 -22 1 -13 3 -13 11 2 11 19 8 33 -4 20z"/>
<path d="M2003 315 c26 -14 53 -23 59 -19 7 5 -2 12 -23 19 -71 25 -82 25 -36
0z"/>
<path d="M10251 324 c0 -11 3 -14 6 -6 3 7 2 16 -1 19 -3 4 -6 -2 -5 -13z"/>
<path d="M4720 316 c0 -8 5 -18 10 -21 6 -3 10 3 10 14 0 12 -4 21 -10 21 -5
0 -10 -6 -10 -14z"/>
<path d="M1920 317 c0 -2 29 -27 65 -57 36 -30 65 -57 65 -62 0 -19 -22 -5
-61 37 -23 25 -44 43 -47 40 -3 -3 2 -13 11 -23 21 -23 22 -42 2 -42 -9 0 -18
-7 -21 -15 -7 -18 -65 -20 -81 -4 -16 16 -53 1 -53 -22 0 -11 -4 -29 -10 -39
-8 -15 -5 -23 16 -39 26 -20 54 -28 54 -15 0 4 -8 13 -17 20 -17 13 -17 13 0
14 9 0 17 7 17 16 0 13 7 15 34 10 40 -8 66 1 66 21 0 12 9 15 43 11 27 -3 50
0 61 7 9 7 37 16 61 20 58 8 62 18 19 38 -42 21 -45 21 -38 2 11 -27 -19 -16
-96 35 -67 45 -90 57 -90 47z"/>
<path d="M4113 289 c-7 -7 -13 -21 -13 -32 0 -10 -4 -15 -10 -12 -22 13 -31
-7 -13 -28 15 -17 16 -20 2 -14 -13 4 -18 -3 -23 -31 -9 -58 -7 -107 6 -120 9
-9 9 -12 0 -12 -7 0 -12 -9 -12 -20 0 -18 6 -20 49 -18 37 2 45 5 35 13 -12 8
-7 18 23 57 21 26 44 47 51 48 23 0 12 18 -15 25 l-28 7 25 19 c14 11 37 25
52 30 16 6 28 20 30 32 2 17 -6 26 -36 40 -54 24 -108 31 -123 16z"/>
<path d="M4816 285 c4 -8 8 -15 10 -15 2 0 4 7 4 15 0 8 -4 15 -10 15 -5 0 -7
-7 -4 -15z"/>
<path d="M11850 290 c19 -13 30 -13 30 0 0 6 -10 10 -22 10 -19 0 -20 -2 -8
-10z"/>
<path d="M4840 271 c-5 -11 -10 -24 -10 -29 0 -13 62 -24 84 -16 15 6 14 10
-10 35 -32 34 -49 36 -64 10z"/>
<path d="M5288 283 c6 -2 18 -2 25 0 6 3 1 5 -13 5 -14 0 -19 -2 -12 -5z"/>
<path d="M8180 270 c-14 -11 -21 -20 -16 -20 5 0 4 -6 -3 -13 -13 -16 -6 -57
11 -69 18 -11 56 -10 63 2 4 6 -7 8 -27 5 -18 -3 -27 -2 -20 1 7 3 17 17 22
30 8 19 17 24 47 24 21 0 47 7 57 15 22 17 20 17 -46 15 -32 -1 -49 3 -55 14
-7 13 -11 12 -33 -4z"/>
<path d="M9140 276 c0 -8 5 -18 10 -21 6 -3 10 3 10 14 0 12 -4 21 -10 21 -5
0 -10 -6 -10 -14z"/>
<path d="M11898 283 c6 -2 18 -2 25 0 6 3 1 5 -13 5 -14 0 -19 -2 -12 -5z"/>
<path d="M4773 249 c-23 -27 -23 -27 -2 -22 21 6 34 25 27 41 -1 5 -13 -3 -25
-19z"/>
<path d="M5375 270 l-20 -9 20 1 c11 0 34 4 50 8 l30 8 -30 0 c-16 0 -39 -3
-50 -8z"/>
<path d="M6030 271 c0 -8 26 -33 49 -46 9 -5 7 2 -5 18 -20 27 -44 43 -44 28z"/>
<path d="M5261 256 c-12 -14 -9 -16 20 -15 19 0 43 4 54 9 l20 9 -20 0 c-11 1
-29 4 -41 7 -12 3 -26 -1 -33 -10z"/>
<path d="M1666 242 c5 -4 22 -18 38 -32 l30 -25 -25 32 c-13 18 -31 32 -38 32
-9 1 -11 -2 -5 -7z"/>
<path d="M5208 233 c7 -3 16 -2 19 1 4 3 -2 6 -13 5 -11 0 -14 -3 -6 -6z"/>
<path d="M2660 210 c0 -8 9 -26 20 -40 l21 -25 -13 30 c-15 38 -28 54 -28 35z"/>
<path d="M7030 213 c0 -5 13 -17 27 -27 l27 -20 -20 27 c-18 26 -34 35 -34 20z"/>
<path d="M4664 183 c3 -8 6 -17 6 -19 0 -10 18 -3 23 10 3 8 -2 16 -14 19 -15
4 -19 2 -15 -10z"/>
<path d="M3326 171 c-3 -5 1 -11 9 -15 15 -6 29 7 18 18 -9 9 -21 8 -27 -3z"/>
<path d="M4610 137 c0 -1 8 -19 19 -40 18 -35 19 -36 23 -12 3 15 -1 30 -12
40 -15 13 -30 20 -30 12z"/>
<path d="M3184 107 c16 -13 30 -31 32 -39 3 -26 36 -68 52 -68 11 0 6 11 -18
35 -44 45 -30 45 23 0 27 -23 51 -35 71 -35 26 0 20 6 -57 55 -111 69 -142 85
-103 52z"/>
<path d="M7211 126 c2 -2 38 -31 79 -65 54 -44 83 -61 104 -61 25 0 15 10 -72
65 -86 55 -130 79 -111 61z"/>
<path d="M7339 97 c36 -19 68 -43 72 -53 7 -18 8 -18 8 2 1 30 -19 50 -64 62
-22 5 -49 13 -60 16 -11 4 9 -8 44 -27z"/>
<path d="M3304 90 c41 -22 62 -40 69 -61 11 -27 15 -29 68 -29 33 0 88 10 133
25 42 14 78 25 81 25 2 0 5 -10 7 -22 4 -30 38 -37 38 -9 0 12 -4 21 -9 21 -5
0 -17 7 -25 15 -27 27 -154 53 -216 45 -30 -4 -49 -8 -41 -9 8 0 12 -3 10 -6
-4 -3 -66 9 -154 31 -11 2 6 -9 39 -26z"/>
<path d="M1870 99 c0 -5 5 -7 10 -4 6 3 10 8 10 11 0 2 -4 4 -10 4 -5 0 -10
-5 -10 -11z"/>
<path d="M10493 94 c-13 -13 -7 -44 8 -44 5 0 9 -11 9 -25 0 -16 6 -25 15 -25
21 0 19 43 -3 78 -14 24 -19 27 -29 16z"/>
<path d="M8525 70 c-3 -5 -15 -10 -25 -10 -10 0 -25 -7 -34 -15 -8 -8 -24 -15
-37 -15 -18 0 -19 -2 -9 -15 15 -18 47 -20 53 -2 3 9 10 9 28 -2 22 -13 23
-13 10 2 -12 16 -8 17 47 17 52 0 63 3 73 21 11 21 10 22 -41 17 -30 -3 -46
-2 -38 3 10 7 9 9 -4 9 -9 0 -20 -4 -23 -10z"/>
<path d="M7260 56 c0 -3 15 -15 33 -27 l32 -23 -24 27 c-22 24 -41 35 -41 23z"/>
<path d="M2312 25 c19 -22 23 -24 31 -9 10 18 -6 34 -35 34 -16 0 -15 -3 4
-25z"/>
</g>
</svg>
